<svg width="32" height="35" xmlns="http://www.w3.org/2000/svg"><path d="M30.292 17.004c-.648.79-.873.895-1.82 1.935-2.371 2.608-4.8 4.686-6.282 5.747-2.391 1.71-4.222 2.944-8.976 3.794 0 0-9.113 6.3-11.215 6.183 0 0 4.064-2.204 5.734-3.557 0 0-5.734 3.557-7.733 3.673 0 0 12.37-6.534 15.94-11.414 0 0-5.666-.615-8.265-5.586a8.979 8.979 0 00-1.596-2.142C4.484 14.026.806 10.474 2.467.24a.267.267 0 01.09-.162c.153-.122.522-.237 1.05.779.898 1.732 8.486 11.608 13.531 14.69 0 0-.32-3.226.08-6.443.321-2.56 1.55-6.211 2.56-4.442 1.605 2.812 3.665 6.334 4.99 10.627 1.468-1.326 3.71-1.511 5.022.091.107.13.19.249.247.351.283.496.213.52 1.085.72 0 0-.537.149-.83.553" fill="#231F20" fill-rule="evenodd"/></svg>