<svg width="117" height="20" xmlns="http://www.w3.org/2000/svg"><path d="M5.411 15.069c0 1.393-.445 1.89-1.384 1.89H2.519v-6.117h1.26c.94 0 1.632.498 1.632 1.89v2.337zM2.52 2.736h1.26c.94 0 1.385.497 1.385 1.89V6.54c0 1.392-.445 1.889-1.385 1.889H2.52V2.736zm3.362 6.863c1.334-.522 1.803-1.592 1.803-2.884V4.302c0-2.76-1.532-3.978-3.435-3.978H0V19.37h4.497c1.902 0 3.434-1.218 3.434-3.98v-2.733c0-1.418-.518-2.487-2.05-3.06zM11.6.324H9.08V19.37h5.535v-2.412H11.6V.324zm7.006 12.408l1.112-9.5 1.112 9.5h-2.224zM17.864.324L15.32 19.37h2.52l.495-4.227h2.793l.494 4.227h2.52L21.571.324h-3.707zM29.01 0c-2.224 0-4.004 1.17-4.004 3.98v11.735c0 2.81 1.804 3.978 3.93 3.978 2.076 0 3.878-1.118 3.878-3.978v-2.71h-2.52v2.387c0 1.392-.692 1.89-1.384 1.89s-1.383-.498-1.383-1.89V4.302c0-1.393.691-1.89 1.383-1.89.692 0 1.384.497 1.384 1.89v2.661h2.52V3.805C32.814.945 30.986 0 29.01 0m5.435 19.37h2.52V.325h-2.52V19.37zM42.526.324h-2.52l-3.014 9.523 3.484 9.524h2.52L39.66 9.773l2.866-9.45zM50.896 0c-2.1 0-3.905 1.17-3.905 3.98v2.386c0 3.606 5.289 5.346 5.289 7.46v1.566c0 1.392-.693 1.89-1.384 1.89-.692 0-1.385-.498-1.385-1.89v-.594h-2.52v.917c0 2.711 1.606 3.978 3.905 3.978 2.298 0 3.904-1.217 3.904-3.978v-2.41c0-3.557-5.289-4.528-5.289-7.41V4.301c0-1.393.693-1.89 1.385-1.89.691 0 1.384.497 1.384 1.89v.594h2.52V3.98C54.8 1.12 53.317 0 50.896 0m16.827.324l-1.408 14.72L64.684.325H61.15l-1.631 14.72L58.11.325h-2.52l2.077 19.047h3.582l1.656-15.366 1.68 15.366h3.583L70.244.324h-2.52zm5.807 12.408l1.113-9.5 1.111 9.5h-2.223zM72.79.324L70.243 19.37h2.522l.495-4.227h2.791l.494 4.227h2.52L76.495.324H72.79zm9.859 0h-2.52V19.37h5.535v-2.412h-3.015V.324zm6.696 0h-2.52V19.37h5.535v-2.412h-3.015V.324zm9.341 15.068c0 1.393-.692 1.891-1.385 1.891-.691 0-1.382-.498-1.382-1.891V4.302c0-1.392.69-1.889 1.382-1.889.693 0 1.385.497 1.385 1.889v11.09zM97.45 0c-2.322 0-4.05 1.169-4.05 3.979v11.736c0 2.811 1.803 3.979 3.928 3.979 2.076 0 3.88-1.118 3.88-3.979V3.979c0-2.785-1.41-3.979-3.757-3.979zm16.878.324l-1.41 14.72-1.63-14.72h-3.533l-1.632 14.72-1.408-14.72h-2.52l2.075 19.047h3.583l1.655-15.366 1.681 15.366h3.583L116.848.324h-2.52z" fill="#FFF" fill-rule="evenodd"/></svg>