<svg width="117" height="20" xmlns="http://www.w3.org/2000/svg"><path d="M5.411 15.069c0 1.393-.445 1.89-1.384 1.89H2.519v-6.117h1.26c.94 0 1.632.498 1.632 1.89v2.337zM2.52 2.736h1.26c.94 0 1.385.497 1.385 1.89V6.54c0 1.392-.445 1.889-1.385 1.889H2.52V2.736zm3.362 6.863c1.334-.522 1.803-1.592 1.803-2.884V4.302c0-2.76-1.532-3.978-3.435-3.978H0V19.37h4.497c1.902 0 3.434-1.218 3.434-3.98v-2.733c0-1.418-.518-2.487-2.05-3.06zM11.6.324H9.08V19.37h5.535v-2.412H11.6V.324zm7.006 12.408l1.112-9.5 1.112 9.5h-2.224zM17.864.324L15.32 19.37h2.52l.495-4.227h2.793l.494 4.227h2.52L21.571.324h-3.707zM29.01 0c-2.224 0-4.004 1.17-4.004 3.98v11.735c0 2.81 1.804 3.978 3.93 3.978 2.076 0 3.878-1.118 3.878-3.978v-2.71h-2.52v2.387c0 1.392-.692 1.89-1.384 1.89s-1.383-.498-1.383-1.89V4.302c0-1.393.691-1.89 1.383-1.89.692 0 1.384.497 1.384 1.89v2.661h2.52V3.805C32.814.945 30.986 0 29.01 0m5.435 19.37h2.52V.325h-2.52V19.37zM42.526.324h-2.52l-3.014 9.523 3.484 9.524h2.52L39.66 9.773l2.866-9.45zM50.896 0c-2.1 0-3.905 1.17-3.905 3.98v2.386c0 3.606 5.289 5.346 5.289 7.46v1.566c0 1.392-.693 1.89-1.384 1.89-.692 0-1.385-.498-1.385-1.89v-.594h-2.52v.917c0 2.711 1.606 3.978 3.905 3.978 2.298 0 3.904-1.217 3.904-3.978v-2.41c0-3.557-5.289-4.528-5.289-7.41V4.301c0-1.393.693-1.89 1.385-1.89.691 0 1.384.497 1.384 1.89v.594h2.52V3.98C54.8 1.12 53.317 0 50.896 0m16.827.324l-1.408 14.72L64.684.325H61.15l-1.631 14.72L58.11.325h-2.52l2.077 19.047h3.582l1.656-15.366 1.68 15.366h3.583L70.244.324h-2.52zm5.807 12.408l1.113-9.5 1.111 9.5h-2.223zM72.79.324L70.243 19.37h2.522l.495-4.227h2.791l.494 4.227h2.52L76.495.324H72.79zm9.859 0h-2.52V19.37h5.535v-2.412h-3.015V.324zm6.696 0h-2.52V19.37h5.535v-2.412h-3.015V.324zm9.341 15.068c0 1.393-.692 1.891-1.385 1.891-.691 0-1.382-.498-1.382-1.891V4.302c0-1.392.69-1.889 1.382-1.889.693 0 1.385.497 1.385 1.889v11.09zM97.45 0c-2.322 0-4.05 1.169-4.05 3.979v11.736c0 2.811 1.803 3.979 3.928 3.979 2.076 0 3.88-1.118 3.88-3.979V3.979c0-2.785-1.41-3.979-3.757-3.979zm16.878.324l-1.41 14.72-1.63-14.72h-3.533l-1.632 14.72-1.408-14.72h-2.52l2.075 19.047h3.583l1.655-15.366 1.681 15.366h3.583L116.848.324h-2.52z" fill="#FFF" fill-rule="evenodd"/></svg>0L3.0141 0L0 9.523L3.48416 19.047L6.00435 19.047L2.66827 9.449L5.5343 0Z" transform="translate(36.991776 0.3237)" id="Fill-83" fill="#FFFFFF" fill-rule="evenodd" stroke="none" />
      <path d="M3.90452 0C1.80469 0 0 1.169 0 3.979L0 6.366C0 9.972 5.28884 11.712 5.28884 13.825L5.28884 15.392C5.28884 16.784 4.59618 17.282 3.90452 17.282C3.21286 17.282 2.5202 16.784 2.5202 15.392L2.5202 14.798L0 14.798L0 15.715C0 18.426 1.60593 19.693 3.90452 19.693C6.20311 19.693 7.80904 18.476 7.80904 15.715L7.80904 13.304C7.80904 9.748 2.5202 8.777 2.5202 5.894L2.5202 4.302C2.5202 2.909 3.21286 2.412 3.90452 2.412C4.59618 2.412 5.28884 2.909 5.28884 4.302L5.28884 4.896L7.80904 4.896L7.80904 3.979C7.80904 1.119 6.32634 0 3.90452 0" transform="translate(46.990986 0.0004)" id="Fill-84" fill="#FFFFFF" fill-rule="evenodd" stroke="none" />
      <path d="M12.1329 0L10.7248 14.721L9.09299 0L5.56014 0L3.92936 14.721L2.5202 0L0 0L2.07598 19.047L5.65852 19.047L7.31414 3.681L8.99461 19.047L12.5771 19.047L14.6531 0L12.1329 0Z" transform="translate(55.59057 0.3237)" id="Fill-85" fill="#FFFFFF" fill-rule="evenodd" stroke="none" />
      <path d="M3.28739 12.408L4.39942 2.909L5.51045 12.408L3.28739 12.408ZM2.54604 0L0 19.047L2.52119 19.047L3.01609 14.82L5.80759 14.82L6.30149 19.047L8.82169 19.047L6.2518 0L2.54604 0Z" transform="translate(70.2435 0.3239)" id="Fill-86" fill="#FFFFFF" fill-rule="evenodd" stroke="none" />
      <path d="M2.5202 0L0 0L0 19.047L5.5353 19.047L5.5353 16.635L2.5202 16.635L2.5202 0Z" transform="translate(80.12833 0.3237)" id="Fill-87" fill="#FFFFFF" fill-rule="evenodd" stroke="none" />
      <path d="M2.51921 0L0 0L0 19.047L5.5343 19.047L5.5343 16.635L2.51921 16.635L2.51921 0Z" transform="translate(86.82564 0.3237)" id="Fill-88" fill="#FFFFFF" fill-rule="evenodd" stroke="none" />
      <path d="M5.28685 15.392C5.28685 16.785 4.59519 17.283 3.90253 17.283C3.21087 17.283 2.5202 16.785 2.5202 15.392L2.5202 4.302C2.5202 2.91 3.21087 2.413 3.90253 2.413C4.59519 2.413 5.28685 2.91 5.28685 4.302L5.28685 15.392ZM4.0516 0C1.72916 0 0 1.169 0 3.979L0 15.715C0 18.526 1.8027 19.694 3.92837 19.694C6.00436 19.694 7.80805 18.576 7.80805 15.715L7.80805 3.979C7.80805 1.194 6.39888 0 4.0516 0L4.0516 0Z" transform="translate(93.39883 0)" id="Fill-89" fill="#FFFFFF" fill-rule="evenodd" stroke="none" />
      <path d="M12.1329 0L10.7238 14.721L9.09299 0L5.56014 0L3.92837 14.721L2.5202 0L0 0L2.07499 19.047L5.65852 19.047L7.31315 3.681L8.99461 19.047L12.5771 19.047L14.6531 0L12.1329 0Z" transform="translate(102.19488 0.3237)" id="Fill-90" fill="#FFFFFF" fill-rule="evenodd" stroke="none" />
    </g>
  </g>
</svg>